<svg width="221" height="18" viewBox="0 0 221 18" fill="none" xmlns="http://www.w3.org/2000/svg">
<path d="M119.114 3.64049C125.938 3.84211 132.106 3.99573 138.265 4.21176C164.553 5.14306 190.597 7.01527 216.543 9.23792C217.062 9.28112 217.581 9.35793 218.09 9.44434C220.234 9.79957 221.39 10.5101 220.881 11.6334C220.391 12.7135 218.687 13.1023 216.622 12.9631C213.723 12.7663 210.845 12.4591 207.966 12.2094C207.369 12.1566 206.752 12.1326 206.087 12.2286C208.926 12.7903 211.824 13.2896 214.595 13.9328C216.338 14.3361 218.022 14.8689 219.461 15.4882C220.675 16.0115 221.468 16.7507 220.509 17.25C214.331 16.3763 208.573 15.4018 202.67 14.7489C169.703 11.1005 136.267 9.61234 102.528 9.96278C82.8774 10.1644 63.2564 10.8365 43.6158 11.2925C42.6367 11.3165 41.6576 11.3309 40.6785 11.3357C36.7034 11.3453 35.9006 11.0333 35.0585 9.10828C25.3264 9.60753 15.79 10.5964 6.40047 11.9502C5.38222 12.099 4.25626 12.4014 3.33591 12.3054C2.11203 12.1758 0.379044 11.8254 0.0657354 11.3693C-0.247573 10.9085 0.614045 10.0684 1.48543 9.65074C2.36661 9.22829 3.83525 9.04107 5.11786 8.90185C15.5158 7.75933 25.904 6.5736 36.3411 5.54149C59.5359 3.25164 82.9852 1.76827 106.513 0.587345C111.898 0.318516 117.332 0.332926 122.756 0.251317C124.479 0.227315 126.32 0.529743 126.153 1.47545C126.055 2.00831 124.557 2.58437 123.431 2.94441C122.384 3.28044 120.984 3.35726 119.114 3.64049ZM118.438 3.02122C118.34 2.80519 118.242 2.58917 118.144 2.37795C111.81 2.71879 105.485 3.05962 99.15 3.40046C104.085 3.66449 108.98 3.71729 113.866 3.63568C115.403 3.60688 116.921 3.23244 118.438 3.02122Z" fill="url(#paint0_linear)"/>
<defs>
<linearGradient id="paint0_linear" x1="221" y1="17.25" x2="218.4" y2="-16.55" gradientUnits="userSpaceOnUse">
<stop stop-color="#FF1F39"/>
<stop offset="1" stop-color="#F31982"/>
</linearGradient>
</defs>
</svg>
